<?xml version="1.0" standalone="no"?>
<!DOCTYPE svg PUBLIC "-//W3C//DTD SVG 20010904//EN"
 "http://www.w3.org/TR/2001/REC-SVG-20010904/DTD/svg10.dtd">
<svg version="1.0" xmlns="http://www.w3.org/2000/svg"
 width="427.000000pt" height="227.000000pt" viewBox="0 0 427.000000 227.000000"
 preserveAspectRatio="xMidYMid meet">

<g transform="translate(0.000000,227.000000) scale(0.100000,-0.100000)"
fill="#000000" stroke="none">
<path d="M2993 2140 c-176 -19 -414 -134 -556 -268 -116 -110 -216 -267 -266
-419 -47 -141 -51 -201 -51 -779 l0 -544 539 0 c573 0 608 2 776 52 307 90
563 357 662 688 26 88 28 107 28 270 0 152 -3 185 -23 252 -52 177 -126 309
-244 433 -124 131 -252 213 -420 271 -111 37 -317 58 -445 44z m-191 -481 c58
-15 120 -68 151 -128 22 -46 27 -67 27 -132 0 -155 -89 -317 -364 -659 -42
-52 -76 -97 -76 -100 0 -3 97 -4 215 -2 147 2 215 -1 215 -8 0 -6 -6 -40 -12
-75 l-13 -65 -352 0 c-204 0 -353 4 -353 9 0 5 33 49 73 98 247 298 399 508
467 646 67 134 58 211 -30 255 -76 38 -173 25 -283 -40 -26 -15 -50 -28 -53
-28 -7 0 6 129 16 156 10 25 107 70 181 83 57 10 130 6 191 -10z m1058 7 c0
-2 -7 -41 -15 -87 -7 -46 -23 -145 -34 -219 -38 -251 -52 -334 -57 -357 -6
-23 -5 -23 81 -23 85 0 87 0 82 -22 -4 -13 -9 -42 -13 -65 l-7 -43 -83 0 c-46
0 -84 -3 -84 -7 0 -15 -51 -318 -56 -335 -4 -15 -18 -18 -80 -18 l-75 0 6 48
c4 26 13 81 20 122 8 41 17 101 21 133 l6 57 -221 0 -221 0 0 36 c0 36 32 76
454 570 34 39 88 103 121 142 59 70 61 72 108 72 26 0 47 -2 47 -4z"/>
<path d="M3515 1173 c-71 -85 -136 -164 -144 -174 -13 -18 -9 -19 107 -19
l120 0 6 28 c17 89 47 293 44 306 -2 8 -58 -51 -133 -141z"/>
<path d="M355 1661 c-3 -6 -14 -70 -25 -143 -10 -73 -28 -194 -40 -268 -19
-123 -34 -229 -90 -605 -11 -71 -20 -136 -20 -142 0 -10 42 -13 178 -13 404 0
562 41 700 181 125 127 180 342 137 541 -40 193 -186 356 -369 413 -104 33
-456 60 -471 36z m315 -145 c263 -43 401 -232 370 -508 -29 -260 -203 -377
-559 -378 l-124 0 7 38 c3 20 15 98 26 172 11 74 28 194 39 265 11 72 22 150
26 175 23 163 35 232 40 240 9 14 75 12 175 -4z"/>
<path d="M1456 1638 c-3 -13 -5 -30 -5 -38 0 -8 -3 -29 -7 -46 l-6 -32 233 -1
c128 -1 235 -3 237 -6 3 -3 -5 -25 -17 -50 -54 -115 -61 -130 -59 -136 2 -4
-4 -15 -13 -25 -9 -11 -25 -41 -35 -69 -10 -27 -20 -52 -23 -55 -16 -14 -42
-73 -44 -99 -1 -16 -5 -27 -9 -25 -9 6 -38 -54 -38 -78 0 -11 -4 -17 -9 -14
-9 6 -27 -50 -23 -67 2 -5 -2 -6 -7 -3 -11 7 -44 -72 -35 -86 4 -6 3 -8 -3 -5
-5 4 -15 -4 -21 -16 -50 -105 -63 -138 -56 -148 4 -8 3 -9 -4 -5 -7 4 -12 4
-13 -1 -2 -26 -9 -43 -33 -77 -14 -21 -26 -43 -26 -47 0 -5 32 -9 70 -9 54 0
70 3 70 14 0 8 5 16 11 18 6 2 12 16 12 31 0 15 3 27 6 27 9 0 54 89 54 107 0
7 4 13 8 13 11 0 30 61 22 73 -3 6 -1 7 6 3 7 -5 17 6 27 31 8 21 31 70 49
108 19 39 37 82 41 98 3 15 9 27 13 27 8 0 57 111 53 123 -1 4 3 7 9 7 6 0 8
7 5 16 -3 8 -2 12 3 9 8 -4 26 30 23 45 0 3 6 12 13 20 7 8 13 17 12 20 -1 5
58 131 90 193 8 15 11 27 8 27 -4 0 1 7 9 16 9 8 14 20 11 25 -4 5 -2 9 3 9
14 0 35 57 26 71 -4 7 -3 10 3 6 6 -4 13 -1 16 7 5 12 -45 14 -323 16 l-329 1
-5 -23z"/>
</g>
</svg>
